<?xml version="1.0" encoding="utf-8"?>
<!-- Generator: Adobe Illustrator 28.2.0, SVG Export Plug-In . SVG Version: 6.00 Build 0)  -->
<svg version="1.1" id="Layer_1" xmlns="http://www.w3.org/2000/svg" xmlns:xlink="http://www.w3.org/1999/xlink" x="0px" y="0px"
	 viewBox="0 0 500 500" style="enable-background:new 0 0 500 500;" xml:space="preserve">
<style type="text/css">
	.st0{fill:#F34026;}
</style>
<path class="st0" d="M440.5,0h-381C26.7,0,0,26.7,0,59.5v381C0,473.3,26.7,500,59.5,500h381c32.9,0,59.5-26.7,59.5-59.5v-381
	C500,26.7,473.3,0,440.5,0z M154.8,190.5v226.2H83.3V190.5H154.8z M83.3,124.6c0-16.7,14.3-29.4,35.7-29.4s34.9,12.7,35.7,29.4
	c0,16.7-13.3,30.1-35.7,30.1C97.6,154.8,83.3,141.3,83.3,124.6z M416.7,416.7h-71.4c0,0,0-110.2,0-119c0-23.8-11.9-47.6-41.7-48.1
	h-1c-28.8,0-40.7,24.5-40.7,48.1c0,10.8,0,119,0,119h-71.4V190.5h71.4V221c0,0,23-30.5,69.2-30.5c47.3,0,85.6,32.5,85.6,98.3V416.7z
	"/>
</svg>
