<?xml version="1.0" encoding="utf-8"?>
<!-- Generator: Adobe Illustrator 28.2.0, SVG Export Plug-In . SVG Version: 6.00 Build 0)  -->
<svg version="1.1" id="Fixed" xmlns="http://www.w3.org/2000/svg" xmlns:xlink="http://www.w3.org/1999/xlink" x="0px" y="0px"
	 viewBox="0 0 252 252" style="enable-background:new 0 0 252 252;" xml:space="preserve">
<style type="text/css">
	.st0{fill:#F34026;}
</style>
<path class="st0" d="M126,0C56.5,0,0,56.5,0,126s56.5,126,126,126s126-56.5,126-126S195.5,0,126,0z M12.7,126
	c0-16.4,3.5-32,9.9-46.1l54,148C38.8,209.6,12.7,170.8,12.7,126z M126,239.3c-11.1,0-21.9-1.6-32-4.7l34-98.8l34.8,95.3
	c0.3,0.5,0.5,1.1,0.8,1.6C151.9,237.1,139.2,239.3,126,239.3z M141.6,72.9c6.8-0.4,12.9-1.1,12.9-1.1c6.1-0.7,5.3-9.7-0.7-9.3
	c0,0-18.4,1.5-30.1,1.5c-11.1,0-29.9-1.5-29.9-1.5c-6.1-0.4-6.8,8.9-0.7,9.3c0,0,5.7,0.7,11.9,1.1l17.6,48.4l-24.8,74.4L56.7,73.1
	c6.8-0.4,12.9-1.1,12.9-1.1c6.1-0.7,5.3-9.7-0.7-9.3c0,0-18.4,1.5-30.1,1.5c-2.1,0-4.7,0-7.3-0.1C51.6,33.1,86.4,12.7,126,12.7
	c29.5,0,56.4,11.3,76.5,29.7c-0.5,0-0.9-0.1-1.5-0.1C190,42.3,182,52,182,62.4c0,9.3,5.3,17.2,11.1,26.5c4.3,7.6,9.3,17.2,9.3,31.2
	c0,9.7-3.7,20.9-8.7,36.7l-11.3,37.7L141.6,72.9z M225.5,71.6c8.8,16.1,13.9,34.7,13.9,54.4c0,41.7-22.7,78.3-56.3,97.9l34.7-100
	c6.4-16.1,8.7-29.1,8.7-40.5C226.1,79.1,225.9,75.2,225.5,71.6z"/>
</svg>
